# File produced by Open Asset Import Library (http://www.assimp.sf.net)
# (assimp v5.2.0)

# 256 vertex positions
v  106.5 2 33
v  106.5 0 33
v  106.5 0 -33
v  106.5 2 -33
v  68.5 2 -33
v  68.5 0 -33
v  68.5 0 33
v  68.5 2 33
v  73.5 0 -33
v  73.5 5 -33
v  78.65625 2 -33
v  86.6999969 2 -33
v  75.5625 2 -31
v  78.65625 2 -31
v  78.65625 3.07141995 -31
v  73.5 0 33
v  75.5625 2 31
v  97.0331268 2 -31
v  78.65625 2 33
v  73.5 5 33
v  82.5131226 2 33
v  78.65625 2.45918012 31
v  78.65625 2 31
v  104.4375 2 -31
v  82.9668732 2 31
v  93.3000031 2 33
v  75.5625 5 -31
v  75.5625 5 -28.875
v  78.65625 5 -33
v  78.65625 5 -32.0384598
v  78.65625 5 -31
v  75.5625 5 12.3999901
v  78.65625 3.70000005 33
v  75.5625 5 31
v  78.65625 3.9000001 31
v  78.65625 4.21875 33
v  78.65625 5 32.5370293
v  78.65625 5 33
v  78.65625 5 31
v  97.4868774 2 -33
v  101.34375 2 -31
v  101.34375 2 -33
v  101.34375 2.45918012 -31
v  106.5 5 -33
v  101.34375 2 31
v  106.5 5 33
v  104.4375 2 31
v  101.34375 2 33
v  101.34375 3.07141995 31
v  101.34375 3.9000001 -31
v  101.34375 3.70000005 -33
v  104.4375 5 -31
v  104.4375 5 -12.3999901
v  101.34375 4.21875 -33
v  101.34375 5 -31
v  101.34375 5 -33
v  101.34375 5 -32.5370293
v  104.4375 5 31
v  104.4375 5 28.875
v  101.34375 5 33
v  101.34375 5 31
v  101.34375 5 32.0384598
v  57.5 0 -33
v  57.5 0 33
v  57.5 6 -33
v  74.5 0 -33
v  74.5 0 33
v  57.5 6 33
v  57.9655113 6 -28.5
v  58.6590881 6 -28.5
v  62.9047508 6 -28.5
v  57.9655113 6 -10.4672604
v  74.5 6 -33
v  57.9655113 6 28.5
v  59.6206818 6 28.5
v  64.0344772 6 28.5
v  74.5 6 33
v  64.0344772 6 -28.5
v  64.0344772 6 -7.63083982
v  64.0344772 6 19.5872593
v  67 3.03448009 -28.5
v  63.9655113 0 -28.5
v  67 3.03448009 28.5
v  63.9655113 0 28.5
v  106.5 0 -78
v  104.469696 0 -59.9024429
v  104.469696 0 -73.9024353
v  39.5 0 -78
v  100.409088 0 -73.9024353
v  100.409088 0 -72.146347
v  100.409088 0 -71.9544296
v  104.469696 2 -75.9512177
v  103.96212 2 -73.9024353
v  104.469696 2 -73.9024353
v  103.353027 2 -73.9024353
v  102.946968 2 -73.9024353
v  104.469696 2.54053998 -73.9024353
v  106.5 4.99998999 -78
v  41.530304 2 -75.9512177
v  101.31144 2 -73.9024353
v  100.409088 2 -73.9024353
v  100.409088 2 -71.923111
v  106.5 0 -36
v  100.409088 0 -42.734108
v  100.409088 2 -54.4008293
v  45.5909081 2 -73.9024353
v  100.409088 2 -54.3905945
v  45.5909081 2 -73.6593704
v  100.409088 2 -54.3861809
v  100.409088 2 -47.6097565
v  45.5909081 0 -73.9024353
v  42.8838234 0 -73.9024353
v  41.530304 0 -73.9024353
v  44.9324188 2 -73.9024353
v  42.4326401 2 -73.9024353
v  41.530304 0 -59.9024429
v  45.5909081 0 -71.2658997
v  45.5909081 2 -66.3902588
v  41.530304 2 -73.9024353
v  45.1602325 2 -73.9024353
v  45.5909081 2 -73.5059204
v  45.5909081 2 -71.2807083
v  43.0530319 2 -73.9024353
v  42.4439392 2 -73.9024353
v  42.0378799 2 -73.9024353
v  41.6251678 2 -73.9024353
v  41.530304 2.23164988 -73.9024353
v  39.5 0 -36
v  45.5909081 0 -42.0455856
v  100.409088 2 -42.7193069
v  100.409088 2 -40.4941025
v  100.409088 2 -40.3406372
v  39.5 4.99998999 -78
v  41.530304 2 -47.6097565
v  104.469696 5 -75.9512177
v  103.231667 5 -75.9512177
v  104.469696 5 -73.9024353
v  60.4121323 5 -75.9512177
v  104.469696 5 -64.5804977
v  106.5 4.99998999 -36
v  41.530304 5 -75.9512177
v  41.530304 5 -73.9024353
v  41.530304 5 -58.8780518
v  41.530304 4.24932003 -56.0584488
v  41.530304 5 -49.4195175
v  100.409088 0 -40.0975494
v  100.409088 2 -42.7165184
v  104.469696 2 -38.0487823
v  100.409088 2 -40.0975494
v  104.469696 0 -40.0975647
v  104.469696 0 -40.0975494
v  103.116165 0 -40.0975494
v  104.469696 2 -40.0975494
v  104.408173 2 -40.0975494
v  104.374817 2 -40.0975494
v  103.96212 2 -40.0975494
v  103.567337 2 -40.0975494
v  103.556061 2 -40.0975494
v  102.946968 2 -40.0975494
v  101.067581 2 -40.0975494
v  104.469696 2.23164988 -40.0975494
v  100.839767 2 -40.0975494
v  41.530304 0 -40.0975647
v  45.5909081 2 -59.5991707
v  45.5909081 2 -42.0769119
v  45.5909081 0 -40.0975494
v  42.8838234 0 -40.0975494
v  45.5909081 2 -41.9448357
v  41.530304 0 -40.0975494
v  44.6885376 2 -40.0975494
v  42.0378685 2 -40.0975494
v  39.5 4.99998999 -36
v  45.5909081 2 -42.0230064
v  45.5909081 2 -40.0975494
v  41.530304 2 -38.0487823
v  41.530304 2 -40.0975494
v  41.530304 2.54052997 -40.0975494
v  41.6604347 2 -40.0975494
v  104.469696 5 -55.1219482
v  104.469696 5 -40.0975494
v  85.5878448 5 -38.0487823
v  104.469696 4.24932003 -57.9415741
v  104.469696 5 -38.0487823
v  41.530304 5 -40.0975494
v  41.530304 5 -38.0487823
v  42.7683182 5 -38.0487823
v  47.9277077 9.18305492 -28
v  47.9277077 9.18305492 -25
v  47.9277077 10.5226049 -25
v  47.9277077 34.1878242 -28
v  47.9277077 10.9929447 -25
v  47.9277077 13.6595755 -25
v  47.9277077 13.6595755 -24.7889404
v  47.9277077 13.6595755 -17.9745197
v  51.9284554 9.18307495 -28
v  47.9277077 9.18305492 28
v  47.9277077 10.815485 25
v  47.9277077 9.18305492 25
v  47.9277077 34.1878242 28
v  47.9277077 13.6595755 -8.0597496
v  47.9277077 13.6595755 11.2108202
v  47.9277077 13.6595755 25
v  51.9284554 9.18307495 25
v  51.9284554 9.18307495 28
v  51.9284554 34.1878242 -28
v  51.9284554 9.18307495 -25
v  51.9284554 10.815485 -25
v  51.9284554 11.2227354 -25
v  51.9284554 16.4223442 -25
v  51.9284554 10.5226049 25
v  51.9284554 34.1878242 28
v  51.9284554 10.815485 25
v  51.9284554 11.2227354 25
v  51.9284554 15.0087357 25
v  51.9284554 16.4223442 -12.6736403
v  51.9284554 16.4223442 9.04316044
v  51.9284554 16.4223442 11.7870903
v  51.9284554 16.4223442 25
v  51.8513756 11.0621347 -25
v  40.9284363 4.76837158e-06 -28
v  44.0719566 4.76837158e-06 -25
v  44.0719566 4.76837158e-06 -11.9967203
v  40.9284363 4.76837158e-06 28
v  51.9284439 4.76837158e-06 -28
v  44.0719566 10.815485 25
v  40.9284363 16.9999962 -28
v  44.0719566 10.815485 -25
v  44.0719566 4.76837158e-06 25
v  40.9284363 16.9999962 28
v  51.9284439 4.76837158e-06 28
v  51.1004868 6.35432529 25
v  44.1330261 10.815485 -25
v  44.1330261 10.815485 -24.8665695
v  44.1330261 10.815485 24.2976894
v  51.9284439 16.9999962 -28
v  44.1330261 10.815485 25
v  44.3050957 10.7053051 25
v  51.9284439 16.9999962 28
v  51.9284439 3.71261501 -25
v  51.9284439 4.76837158e-06 -25
v  51.9284439 5.82419491 -25
v  51.9284439 10.815485 -25
v  51.9284439 4.76837158e-06 25
v  51.9284439 0.910715103 25
v  51.9284439 5.82419491 25
v  51.9284439 7.10286522 25
v  51.9284439 10.815485 25
v  51.9284439 11.2227345 -25
v  51.9284439 16.079834 -25
v  51.9284439 16.4223442 -25
v  51.9284439 16.4223442 9.04316044
v  51.9284439 16.4223442 24.6723404
v  51.9284439 16.4223442 25
v  43.9649963 10.9230747 -25
v  43.9649963 10.9230747 25
v  51.8513641 11.0621347 25

# 375 UV coordinates
vt 0 0 0
vt 0 1 0
vt 1 1 0
vt 1 0 0
vt 0.243750006 0.84375 0
vt 7.1054272e-17 0.600000024 0
vt 0.892857134 1 0
vt 0.892857134 0.892857134 0
vt 0.107142858 1 0
vt 0.600000024 0.600000024 0
vt 0.743571401 1 0
vt 0.15625 0.600000024 0
vt 0.273124993 0.600000024 0
vt 0.107142866 0.954081655 0
vt 0.107142858 0.107142866 0
vt 0.25642857 0.256428599 0
vt -2.78585484e-16 0.892857134 0
vt 0.300000012 1 0
vt 0 0.699999988 0
vt 0.0342741944 0.699999988 0
vt 0.84375 0.84375 0
vt 0 0.0625 0
vt 0.0321969688 0.0625 0
vt 0.141681209 0.15625 0
vt 0.15625 0.15625 0
vt 0.192857176 0.892857134 0
vt 0.125946954 0.15625 0
vt 0.699999988 0.699999988 0
vt 0.0625 0.687878788 0
vt 0.0625 0.0625 0
vt 0.15625 0.25999999 0
vt 0.107142866 0.810000002 0
vt 0.0625 0.969696999 0
vt 0.156250015 0.992985427 0
vt 0 0.15625 0
vt 0.15625 1 0
vt 0.107142866 0.699999988 0
vt 0.156250015 0.969696999 0
vt 0 0.600000024 0
vt 0.907196999 0.9375 0
vt 0.836735368 0.84375 0
vt 0.813446999 0.84375 0
vt 0.625378788 0.9375 0
vt 0 0.9375 0
vt 0.9375 0.969696999 0
vt 0.84375 0.969696999 0
vt 0.84375 0.985431254 0
vt 0.84375 1 0
vt 0.9375 0.9375 0
vt 0.189999998 0.892857194 0
vt 0.189999998 1 0
vt 0.170000002 1 0
vt 0.354545444 0.829999983 0
vt 0 0.829999983 0
vt 0 0.810000002 0
vt 0.810000002 0.810000002 0
vt 0.810000002 0.954081655 0
vt 0.829999983 1 0
vt 0.810000002 1 0
vt 0 0.170000017 0
vt 0.170000002 0.170000017 0
vt 0 0.189999998 0
vt 0.189999998 0.189999998 0
vt 0.475454539 0.645454526 0
vt 3.12685786e-16 0.189999998 0
vt -2.40527526e-16 0.170000017 0
vt 0.179615378 0.699999988 0
vt 0.170000002 0.699999988 0
vt 0.189999998 0.699999988 0
vt 0.829999983 0.829999983 0
vt 0.051874999 0.829999983 0
vt 0.125370368 0.825370371 0
vt 0.109999999 0.810000002 0
vt 0.129999995 0.829999983 0
vt -1.92422023e-16 0.810000002 0
vt 3.84844046e-16 0.829999983 0
vt 0.0273829829 0.0681818128 0
vt 0.0681818202 0.0681818128 0
vt -1.50271903e-16 0.0681818128 0
vt 0.249745056 0.317926884 0
vt 0.0273829829 0.341405094 0
vt 0.0273829829 0.931818187 0
vt 0.124746166 0.931818187 0
vt 0.384381205 0.931818187 0
vt 0.316199362 0.384381175 0
vt 9.24750205e-17 0.384381175 0
vt 0.384381205 0.384381175 0
vt 0.384381205 0.796776772 0
vt 0.683636248 0.683636189 0
vt 0.298078477 0.885716975 0
vt 0.316363782 1 0
vt 0.683636248 1 0
vt -1.99233042e-16 0.683636189 0
vt 0.186147407 0.186147392 0
vt 0.156363755 0.156363726 0
vt 0 0.186147392 0
vt 0.477510661 0.843636274 0
vt 0.843636274 0.843636274 0
vt 0.727272749 0.727272749 0
vt 0 0.727272749 0
vt 1.99232843e-16 0.843636274 0
vt 0.843636274 1 0
vt 0.430894315 0.969696999 0
vt 0.097560972 0.969696999 0
vt 0.097560972 0.909090877 0
vt 0.139372811 0.909090877 0
vt 0.143942416 0.909090877 0
vt 0.0540540554 0.991935492 0
vt 0.0540540665 1 0
vt 0.0540540554 0.982258081 0
vt 0.0540540554 0.975806475 0
vt 0.945945919 1 0
vt 0.945945919 0.945945919 0
vt 0.0540540554 0.949820817 0
vt 0.0540540554 0.935483873 0
vt 0.106275767 0.935483873 0
vt 0.839664161 0.909090877 0
vt 0.568575382 0.935483873 0
vt 0.0540540628 0.0645161271 0
vt 0.568845212 0.935483873 0
vt 0.0604672469 0.0645161271 0
vt 0.568961799 0.935483873 0
vt 0.747747838 0.935483873 0
vt 0.00665190024 0.0975610018 0
vt 0.0470559262 0.0975609422 0
vt 0.0672579482 0.0975609422 0
vt 0.162161991 0.777777791 0
vt 0.666666687 1 0
vt 0.777777791 0.777777791 0
vt 0.400591284 0.430894315 0
vt 0.922006965 1 0
vt 0 0.777777791 0
vt 0.414141327 1 0
vt 0.106060401 0.777777791 0
vt 0.215031683 0.992809474 0
vt 0.222222224 1 0
vt 0.21049203 0.988269806 0
vt 0.144667014 0.92244482 0
vt 0.625 0.777777791 0
vt 0.774999619 0.777777791 0
vt 7.01770608e-16 0.777777791 0
vt 0.0972222239 0.875 0
vt 0.19885774 0.976635516 0
vt 0.0540540665 0.0576735139 0
vt 0.0540540665 0.0540540814 0
vt 0.0298605058 0.0540540218 0
vt -1.38908004e-16 0.0540540814 0
vt 0.0395379253 0.0540540218 0
vt 0.0397171602 0.0540540218 0
vt 0.0459895395 0.0540540218 0
vt 0.0525466651 0.0540540218 0
vt 0.054054074 0.97683394 0
vt 0.069426775 0.160335839 0
vt 0.0576256663 1 0
vt 0.0645161271 0.0645161271 0
vt 0.876775086 0.935483873 0
vt -9.26053379e-17 0.0645161271 0
vt 0.0587087907 0.123224914 0
vt -8.67530562e-16 0.935483873 0
vt 0.187736139 0.252252281 0
vt 0.00404888205 0.939532757 0
vt 0.747747898 1 0
vt 0 0.945945919 0
vt 0.0196695514 0.699999988 0
vt 0.245945916 0.945945919 0
vt 7.94922058e-18 0.0487805009 0
vt 0.0184774566 0.0487805009 0
vt 0.0672579855 0.0975610018 0
vt 0.048780486 0.687878788 0
vt 0.048780486 0.0487805009 0
vt 0.289209157 0.319512188 0
vt 0.054054074 0.699999988 0
vt 0.048780486 0.969696999 0
vt 0.0975609943 0.969696999 0
vt 0 0.752037764 0
vt 0 0.444444418 0
vt 0.444444448 0.444444418 0
vt 0.455284715 0.969696999 0
vt 0.524842024 0.775067687 0
vt 0.527853012 0.527853012 0
vt 0.680487812 0.969696999 0
vt 0.902439177 0.909090877 0
vt 0.876848698 0.935483873 0
vt 0.935483873 0.935483873 0
vt 0.0104622766 0.945946157 0
vt 0.902439058 0.969696999 0
vt 0.902439237 0.969696999 0
vt 0.902439237 0.949495018 0
vt 0.945946157 1 0
vt 0.945946157 0.999022484 0
vt 0.945946157 0.998492599 0
vt 0.945946157 0.991935492 0
vt 0.945946157 0.985663116 0
vt 0.945946157 0.985483944 0
vt 0.945946157 0.975806534 0
vt 0.945946157 0.945946157 0
vt 0.054053843 0.976834059 0
vt 0.0540538579 1 0
vt -5.35089366e-18 0.945946157 0
vt 0.003619442 0.945946157 0
vt 0.765148461 0.856057584 0
vt 0.999999762 1 0
vt 0.366908491 0.431424618 0
vt 0.829208076 0.893724203 0
vt 0.576887548 0.777777791 0
vt 0.0585518479 0.777777791 0
vt 0.811530113 0.902439237 0
vt 0.851934254 0.902439237 0
vt 0.872135997 0.902438998 0
vt 0.0546450391 0.777777791 0
vt 0.872136176 0.902439237 0
vt 0.333331734 1 0
vt 0.124999523 0.777777791 0
vt 0.830630004 0.895145953 0
vt 0.832692564 0.897208691 0
vt 0.88143003 0.945946157 0
vt 0.895766973 0.945946157 0
vt 0.937881649 0.945946157 0
vt 0.0569577888 0.777777791 0
vt 0.282282054 1 0
vt 0.0320511796 0.777777791 0
vt 0.943878293 0.945946097 0
vt 0.514412642 0.544715643 0
vt 0.054053843 0.699999988 0
vt 0.524841726 0.775067806 0
vt 0.920916498 0.951219499 0
vt 0.639098287 0.951219499 0
vt 0 0.527853012 0
vt 0.279797673 0.724242091 0
vt -1.31976691e-15 0.444444418 0
vt 0.555555582 1 0
vt 7.68922944e-18 0.945946157 0
vt 0.245946169 0.945946157 0
vt 0 0.951219499 0
vt 0.951219499 0.969696999 0
vt 0.951219499 0.951219499 0
vt 0.375 0.777777791 0
vt 0.0519480519 1 0
vt 0.058551617 0.777777791 0
vt 0.0576254353 1 0
vt 0.125 0.777777791 0
vt 0.274999619 0.777777791 0
vt 0.279798269 0.724242687 0
vt 0.585858643 1 0
vt 0.527853131 0.527853131 0
vt 0.577190101 0.777777791 0
vt 0.577320874 0.777777791 0
vt 0.282282323 1 0
vt 0 0.527853131 0
vt 0.922006726 1 0
vt 2.31193781e-07 1 0
vt 0.666668236 1 0
vt 0.162165374 0.777777791 0
vt 0.144666776 0.922444582 0
vt 0.144749314 0.922527075 0
vt 0 0.752037883 0
vt 0.207070768 0.984848559 0
vt 0.198857829 0.976635575 0
vt 0.0972227007 0.875000477 0
vt 0.775000453 0.777777791 0
vt 0.625001431 0.777777791 0
vt 0.210491791 0.988269567 0
vt 0.215031445 0.992809236 0
vt 0.106063902 0.777777791 0
vt 0.946428597 1 0
vt 0.946428597 0.946428239 0
vt 0.946428597 0.927618206 0
vt 0.946428597 0.820973337 0
vt 0.942659616 0.820973337 0
vt 0.820973575 0.820973337 0
vt 0.946428597 0 0
vt 8.10471157e-09 1 0
vt 8.10471157e-09 0 0
vt 1 0.999999166 0
vt 0.0535714291 0.934715271 0
vt 0.0535714291 1 0
vt 0.643924117 0.820973337 0
vt 0.299806774 0.820973337 0
vt 0.0535714291 0.820973337 0
vt 6.24772456e-12 0 0
vt 0.0535714291 0 0
vt 8.10471157e-09 0.999999166 0
vt 0 0.999999166 0
vt 0.0535714291 0.999999166 0
vt 0.0535714291 0.918428361 0
vt 0.0535714291 0.71048367 0
vt 6.24772456e-12 1 0
vt 0.946428597 0.999999166 0
vt 0.946428597 0.934715271 0
vt 0.946428597 0.918428361 0
vt 0.946428597 0.767017245 0
vt 0.273685008 0.71048367 0
vt 0.661485016 0.71048367 0
vt 0.71048373 0.71048367 0
vt 0.946428597 0.71048367 0
vt 1 0.946428239 0
vt 8.10471157e-09 0.934715271 0
vt 0.0192663949 0.92485112 0
vt 1 0.927618206 0
vt 1 0.820973337 0
vt 0.864248455 0 0
vt 0.867349744 0 0
vt 0.867349744 1 0
vt 0.76411742 0 0
vt 0.686226368 1 0
vt 0.618429899 0 0
vt 0.335268319 0 0
vt 0.367119879 1 0
vt 1 0.918428361 0
vt 8.10471157e-09 0.820973337 0
vt 0.326800615 1 0
vt 0.132650226 0 0
vt 8.10471157e-09 0.918428361 0
vt 8.10471157e-09 0.71048367 0
vt 1 0.934715271 0
vt 1 0.767017245 0
vt 1 0.71048367 0
vt 0.132650226 1 0
vt 0.946428597 0.285774291 0
vt 0.71422714 0.285774291 0
vt 0.946428597 0.363794923 0
vt 0.28577286 1 0
vt -2.10571098e-08 1 0
vt -2.10571098e-08 0 0
vt 0.0535714291 0.363794923 0
vt 0.0535714291 0.285774291 0
vt 0.285774291 1 0
vt 0.285774291 0.363794923 0
vt 0.924731016 0.626216233 0
vt 0.946428597 0.291326106 0
vt 0.944045901 0.291326106 0
vt 0.0661126971 0.291326106 0
vt 0.0535714291 0.291326106 0
vt 0.291326076 0.363794923 0
vt 0.306968808 0.370276093 0
vt 0.714225709 1 0
vt -2.10571098e-08 0.781611025 0
vt 0.714225709 0.363794923 0
vt 0.0535714291 0.781611025 0
vt 0.0535714291 0.65740037 0
vt -2.10571098e-08 0.65740037 0
vt 1 0.946428776 0
vt 0.946428597 0.946428776 0
vt 0.946428597 0.65740037 0
vt 1 0.65740037 0
vt 0.946428597 0.582184434 0
vt 0.708673894 0.363794923 0
vt 0.0535714291 0.339839041 0
vt 0.0535714291 0.0541270971 0
vt 0.0535714291 0.0339794159 0
vt 0.661485016 0.0339794159 0
vt 0.940577507 0.0339794159 0
vt 0.946428597 0.0339794159 0
vt 0.124037594 0.276050627 0
vt 0.126044184 0.291326106 0
vt 0.124037594 0.291326106 0
vt 0.865400672 0.291326106 0
vt 0.875962377 0.276050627 0
vt 0.875962377 0.291326106 0
vt 1 0.582184434 0
vt 0.723949373 0.357466102 0
vt -2.10571098e-08 0.363794923 0
vt -2.10571098e-08 0.339839041 0
vt -2.10571098e-08 0.0541270971 0
vt -2.10571098e-08 0.0339794159 0
vt 0.867349625 0.276050627 0
vt 0.867349625 1 0
vt 0.367119938 1 0
vt 0.992992759 0.349286079 0
vt 0.276050657 0.357466102 0
vt 0.13265036 0.276050627 0
vt 1 0.363794923 0
vt 0.137464985 1 0
vt 1 0.0339794159 0
vt 0.13265036 1 0

# 17 vertex normals
vn 1 0 0
vn -1 0 0
vn 0 1 0
vn 0 -1 0
vn 0 0 1
vn 0 0 -1
vn -0.707105637 0.707107961 0
vn 0.707106769 0.707106769 0
vn -0.707106769 -0.707106769 0
vn 0 1 -4.88095338e-06
vn 4.92537083e-06 1 0
vn -4.9253731e-06 1 0
vn 0 1 4.88095111e-06
vn 4.99906264e-06 -1 0
vn 0.568239093 -0.822863519 0
vn 0.539234281 0.842155755 0
vn 0.56823951 -0.822863221 0

# Mesh 'meshes[0]' with 12 faces
g meshes[0]
f  1/1/1 2/2/1 3/3/1
f  1/1/1 3/3/1 4/4/1
f  5/1/2 6/2/2 7/3/2
f  5/1/2 7/3/2 8/4/2
f  5/1/3 8/2/3 1/3/3
f  5/1/3 1/3/3 4/4/3
f  7/1/4 6/2/4 3/3/4
f  7/1/4 3/3/4 2/4/4
f  8/1/5 7/2/5 2/3/5
f  8/1/5 2/3/5 1/4/5
f  4/1/6 3/2/6 6/3/6
f  4/1/6 6/3/6 5/4/6

# Mesh 'meshes[1]' with 108 faces
g meshes[1]
f  9/2/6 10/3/6 11/5/6
f  9/2/6 11/5/6 12/6/6
f  13/3/5 14/7/5 15/8/5
f  9/2/2 16/3/2 10/1/2
f  13/2/3 17/1/3 14/9/3
f  9/3/6 12/10/6 3/2/6
f  9/2/4 3/3/4 16/1/4
f  17/1/3 18/11/3 14/9/3
f  16/2/5 19/12/5 20/1/5
f  16/2/5 21/13/5 19/12/5
f  17/2/6 22/14/6 23/9/6
f  17/1/3 23/15/3 24/2/3
f  23/15/3 25/16/3 24/2/3
f  16/2/5 26/10/5 21/13/5
f  13/2/5 15/17/5 27/18/5
f  13/2/1 27/19/1 28/20/1
f  10/3/6 29/21/6 11/5/6
f  10/1/3 28/22/3 27/23/3
f  10/1/3 27/23/3 30/24/3
f  10/1/3 30/24/3 29/25/3
f  27/18/5 15/17/5 31/26/5
f  27/23/3 31/27/3 30/24/3
f  13/2/1 28/20/1 32/28/1
f  10/1/3 32/29/3 28/30/3
f  13/2/1 32/28/1 17/3/1
f  16/2/2 20/3/2 10/1/2
f  20/1/5 19/12/5 33/31/5
f  17/2/6 34/19/6 35/32/6
f  17/2/6 35/32/6 22/14/6
f  10/1/3 20/2/3 32/29/3
f  17/2/1 32/19/1 34/18/1
f  20/1/5 33/31/5 36/25/5
f  32/29/3 20/2/3 34/33/3
f  20/2/3 37/34/3 34/33/3
f  20/1/5 36/35/5 38/25/5
f  20/2/3 38/36/3 37/34/3
f  34/19/6 39/37/6 35/32/6
f  34/33/3 37/34/3 39/38/3
f  3/2/6 12/10/6 40/13/6
f  41/7/3 18/11/3 17/1/3
f  24/3/3 41/7/3 17/1/3
f  3/2/6 40/13/6 42/12/6
f  24/2/5 43/14/5 41/9/5
f  3/2/6 42/12/6 44/1/6
f  16/1/4 3/2/4 2/3/4
f  16/2/5 2/3/5 26/10/5
f  25/16/3 45/8/3 24/2/3
f  3/3/1 46/1/1 2/2/1
f  45/8/3 47/3/3 24/2/3
f  2/2/5 48/5/5 26/39/5
f  47/3/6 45/7/6 49/8/6
f  2/2/5 46/3/5 48/5/5
f  24/2/5 50/32/5 43/14/5
f  44/1/6 42/12/6 51/31/6
f  24/2/5 52/19/5 50/32/5
f  24/3/2 47/2/2 53/28/2
f  3/2/1 44/3/1 46/1/1
f  44/1/6 51/31/6 54/25/6
f  24/2/2 53/19/2 52/18/2
f  52/19/5 55/37/5 50/32/5
f  44/1/6 54/35/6 56/25/6
f  52/40/3 57/41/3 55/42/3
f  44/3/3 56/21/3 57/41/3
f  52/40/3 44/3/3 57/41/3
f  52/40/3 53/43/3 44/3/3
f  44/3/3 53/43/3 46/2/3
f  47/2/6 49/17/6 58/18/6
f  47/2/2 59/20/2 53/28/2
f  53/43/3 59/44/3 46/2/3
f  46/3/5 60/21/5 48/5/5
f  58/18/6 49/17/6 61/26/6
f  47/2/2 58/19/2 59/20/2
f  58/45/3 61/46/3 62/47/3
f  46/3/3 62/47/3 60/48/3
f  58/45/3 62/47/3 46/3/3
f  59/49/3 58/45/3 46/3/3
f  15/50/1 14/51/1 11/52/1
f  12/53/3 11/54/3 14/55/3
f  12/53/3 14/55/3 18/56/3
f  22/57/1 19/58/1 23/59/1
f  19/60/3 21/61/3 23/62/3
f  23/62/3 21/61/3 25/63/3
f  26/64/3 25/65/3 21/66/3
f  15/50/1 11/52/1 30/67/1
f  29/68/1 30/67/1 11/52/1
f  15/50/1 30/67/1 31/69/1
f  22/57/1 33/70/1 19/58/1
f  22/57/1 35/56/1 33/70/1
f  36/71/1 33/54/1 35/55/1
f  37/72/1 36/71/1 35/55/1
f  37/72/1 35/55/1 39/73/1
f  37/72/1 38/74/1 36/71/1
f  12/53/3 18/56/3 40/70/3
f  18/75/3 41/51/3 40/76/3
f  40/76/3 41/51/3 42/52/3
f  43/57/2 42/58/2 41/59/2
f  26/64/3 45/59/3 25/65/3
f  26/64/3 48/58/3 45/59/3
f  49/50/2 45/51/2 48/52/2
f  43/57/2 51/70/2 42/58/2
f  43/57/2 50/56/2 51/70/2
f  54/71/2 51/54/2 50/55/2
f  57/72/2 54/71/2 50/55/2
f  57/72/2 50/55/2 55/73/2
f  56/74/2 54/71/2 57/72/2
f  49/50/2 48/52/2 62/67/2
f  60/68/2 62/67/2 48/52/2
f  49/50/2 62/67/2 61/69/2

# Mesh 'meshes[2]' with 40 faces
g meshes[2]
f  63/2/2 64/3/2 65/1/2
f  63/2/4 66/3/4 64/1/4
f  64/2/5 67/3/5 68/1/5
f  65/1/3 69/77/3 70/78/3
f  65/1/3 70/79/3 71/80/3
f  65/1/3 68/2/3 69/77/3
f  68/2/3 72/81/3 69/77/3
f  63/2/6 65/3/6 73/1/6
f  65/1/3 71/80/3 73/3/3
f  64/2/2 68/3/2 65/1/2
f  68/2/3 74/82/3 72/81/3
f  68/2/3 75/83/3 74/82/3
f  68/2/3 76/84/3 75/83/3
f  68/2/3 77/3/3 76/84/3
f  63/3/6 73/1/6 66/2/6
f  66/2/4 67/3/4 64/1/4
f  66/3/1 77/1/1 67/2/1
f  73/3/3 71/80/3 78/85/3
f  73/3/3 78/85/3 79/86/3
f  66/2/1 73/3/1 77/1/1
f  73/3/3 79/86/3 77/2/3
f  68/1/5 67/2/5 77/3/5
f  77/3/3 79/87/3 80/88/3
f  77/3/3 80/88/3 76/84/3
f  81/3/7 82/2/7 83/1/7
f  83/1/7 82/3/7 84/2/7
f  82/2/8 74/89/8 84/3/8
f  70/90/5 69/91/5 82/2/5
f  69/92/8 72/89/8 82/3/8
f  82/2/8 72/93/8 74/89/8
f  70/90/5 82/2/5 71/94/5
f  81/1/5 71/94/5 82/2/5
f  81/1/5 78/95/5 71/96/5
f  81/3/9 79/97/9 78/98/9
f  74/92/6 75/99/6 84/3/6
f  76/98/6 84/2/6 75/100/6
f  83/3/6 84/2/6 76/98/6
f  83/2/9 80/101/9 79/97/9
f  83/3/9 76/102/9 80/98/9
f  81/3/9 83/2/9 79/97/9

# Mesh 'meshes[3]' with 208 faces
g meshes[3]
f  85/2/4 86/103/4 87/104/4
f  85/2/4 87/104/4 88/1/4
f  88/1/4 87/104/4 89/105/4
f  88/1/4 89/105/4 90/106/4
f  88/1/4 90/106/4 91/107/4
f  92/2/3 93/108/3 94/109/3
f  92/2/3 95/110/3 93/108/3
f  92/2/3 96/111/3 95/110/3
f  92/3/2 94/112/2 97/113/2
f  85/2/6 88/3/6 98/1/6
f  92/2/3 99/1/3 96/111/3
f  99/1/3 100/114/3 96/111/3
f  99/1/3 101/115/3 100/114/3
f  99/1/3 102/116/3 101/115/3
f  85/2/4 103/3/4 86/103/4
f  88/1/4 91/107/4 104/117/4
f  99/1/3 105/118/3 102/116/3
f  106/119/3 107/120/3 105/118/3
f  108/121/3 109/122/3 107/120/3
f  108/121/3 110/123/3 109/122/3
f  88/1/4 111/124/4 112/125/4
f  88/1/4 112/125/4 113/126/4
f  111/2/5 114/127/5 112/128/5
f  112/128/5 115/129/5 113/3/5
f  88/1/4 113/126/4 116/130/4
f  111/3/2 117/131/2 118/129/2
f  113/2/1 119/132/1 116/133/1
f  99/1/3 106/119/3 105/118/3
f  111/2/5 106/132/5 120/134/5
f  111/2/2 108/135/2 106/136/2
f  111/2/5 120/134/5 114/127/5
f  111/2/2 121/137/2 108/135/2
f  111/2/2 122/138/2 121/137/2
f  112/128/5 114/127/5 123/139/5
f  112/128/5 123/139/5 124/140/5
f  112/128/5 124/140/5 115/129/5
f  113/2/5 115/141/5 125/142/5
f  113/2/5 125/142/5 126/143/5
f  113/2/5 126/143/5 119/136/5
f  99/1/3 120/144/3 106/119/3
f  99/1/3 114/145/3 120/144/3
f  99/1/3 123/146/3 114/147/3
f  99/1/3 124/148/3 123/146/3
f  99/1/3 115/149/3 124/148/3
f  99/1/3 125/150/3 115/149/3
f  99/1/3 126/151/3 125/150/3
f  99/1/3 119/145/3 126/151/3
f  99/2/1 127/152/1 119/109/1
f  111/2/2 118/132/2 122/138/2
f  88/1/4 103/2/4 111/124/4
f  111/124/4 103/2/4 117/153/4
f  88/1/4 116/130/4 128/3/4
f  117/131/2 129/154/2 118/129/2
f  106/119/3 108/121/3 107/120/3
f  108/121/3 121/155/3 130/156/3
f  121/157/3 122/158/3 131/159/3
f  122/158/3 118/160/3 132/161/3
f  88/2/2 128/3/2 133/1/2
f  119/109/1 127/152/1 134/162/1
f  119/132/1 134/129/1 116/133/1
f  92/2/2 97/163/2 135/18/2
f  92/2/5 135/19/5 136/164/5
f  135/18/2 97/163/2 137/165/2
f  98/1/10 136/166/10 135/167/10
f  98/1/11 135/167/11 137/168/11
f  98/1/10 138/169/10 136/170/10
f  98/1/11 137/168/11 139/171/11
f  92/2/5 136/164/5 138/28/5
f  85/2/1 98/3/1 140/1/1
f  98/1/11 139/171/11 140/3/11
f  92/2/5 138/28/5 99/3/5
f  88/2/6 133/3/6 98/1/6
f  99/2/1 141/19/1 127/152/1
f  98/1/10 133/2/10 138/169/10
f  99/2/5 138/19/5 141/18/5
f  127/152/1 141/19/1 142/172/1
f  138/169/10 133/2/10 141/173/10
f  133/2/12 142/174/12 141/173/12
f  127/175/1 142/176/1 143/177/1
f  133/2/12 143/178/12 142/174/12
f  127/152/1 144/179/1 134/162/1
f  127/175/1 143/177/1 144/180/1
f  133/2/12 145/181/12 143/178/12
f  88/1/4 104/117/4 146/182/4
f  88/1/4 146/182/4 103/3/4
f  85/3/1 140/1/1 103/2/1
f  108/121/3 130/156/3 110/123/3
f  121/155/3 147/183/3 130/156/3
f  121/155/3 131/184/3 147/183/3
f  122/158/3 132/161/3 131/159/3
f  118/160/3 148/2/3 149/185/3
f  118/160/3 149/185/3 132/161/3
f  103/3/4 150/186/4 86/103/4
f  103/3/4 151/187/4 150/186/4
f  103/3/4 152/188/4 151/187/4
f  103/3/4 146/182/4 152/188/4
f  148/3/3 153/189/3 154/190/3
f  148/3/3 154/190/3 155/191/3
f  148/3/3 155/191/3 156/192/3
f  156/192/3 157/193/3 148/3/3
f  148/3/3 157/193/3 158/194/3
f  148/3/3 158/194/3 159/195/3
f  148/3/3 159/195/3 160/196/3
f  148/2/2 161/197/2 153/198/2
f  148/2/3 160/199/3 162/200/3
f  148/2/3 162/200/3 149/185/3
f  117/153/4 103/2/4 129/201/4
f  116/133/1 134/129/1 163/202/1
f  118/160/3 164/203/3 148/2/3
f  164/203/3 165/204/3 148/2/3
f  118/129/2 129/154/2 164/205/2
f  164/205/2 129/154/2 165/206/2
f  103/2/4 166/207/4 129/201/4
f  103/2/4 167/208/4 166/207/4
f  103/2/4 128/3/4 167/208/4
f  116/130/4 163/209/4 128/3/4
f  129/154/2 166/2/2 168/210/2
f  134/129/1 169/3/1 163/202/1
f  167/208/4 128/3/4 169/211/4
f  163/209/4 169/211/4 128/3/4
f  166/3/6 167/212/6 170/129/6
f  167/212/6 169/2/6 171/213/6
f  103/3/5 172/1/5 128/2/5
f  148/2/3 165/204/3 173/214/3
f  148/2/3 173/214/3 168/215/3
f  148/2/3 168/215/3 174/216/3
f  148/2/3 174/216/3 170/217/3
f  148/2/3 170/217/3 171/218/3
f  148/2/3 171/218/3 175/3/3
f  129/154/2 173/219/2 165/206/2
f  129/154/2 168/210/2 173/219/2
f  134/132/1 176/136/1 169/2/1
f  134/132/1 177/220/1 176/136/1
f  166/2/2 174/132/2 168/210/2
f  166/2/6 170/141/6 174/136/6
f  167/212/6 171/213/6 170/129/6
f  169/2/6 178/221/6 171/213/6
f  169/2/6 176/132/6 178/221/6
f  171/218/3 178/222/3 175/3/3
f  178/222/3 176/196/3 175/3/3
f  176/189/1 177/196/1 175/3/1
f  140/3/11 139/171/11 179/223/11
f  148/2/2 180/224/2 161/197/2
f  148/3/6 175/2/6 181/28/6
f  103/2/5 140/3/5 172/1/5
f  180/224/2 182/225/2 161/197/2
f  140/3/11 179/223/11 180/211/11
f  148/2/2 183/19/2 180/224/2
f  148/2/6 181/19/6 183/18/6
f  183/226/11 140/3/11 180/211/11
f  183/226/13 181/227/13 140/3/13
f  140/3/13 181/227/13 172/2/13
f  133/1/2 128/2/2 172/3/2
f  134/132/1 144/228/1 145/229/1
f  143/230/1 145/229/1 144/228/1
f  133/2/12 172/3/12 145/181/12
f  134/132/1 184/231/1 177/220/1
f  175/2/1 177/232/1 185/18/1
f  175/2/6 186/164/6 181/28/6
f  134/132/1 145/229/1 184/231/1
f  145/181/12 172/3/12 184/187/12
f  177/232/1 184/233/1 185/18/1
f  175/2/6 185/19/6 186/164/6
f  181/227/13 186/234/13 172/2/13
f  184/187/12 172/3/12 185/235/12
f  186/236/13 185/235/13 172/3/13
f  96/237/5 89/3/5 87/2/5
f  90/238/1 89/2/1 101/132/1
f  90/238/1 102/239/1 91/240/1
f  93/241/5 87/2/5 94/132/5
f  95/242/5 87/2/5 93/241/5
f  95/242/5 96/237/5 87/2/5
f  96/237/5 100/129/5 89/3/5
f  89/2/5 100/141/5 101/136/5
f  90/238/1 101/132/1 102/239/1
f  139/243/2 94/136/2 87/2/2
f  91/240/1 102/239/1 105/205/1
f  86/244/2 182/245/2 87/3/2
f  91/240/1 107/246/1 109/247/1
f  91/240/1 105/205/1 107/246/1
f  91/240/1 109/247/1 110/129/1
f  94/136/2 139/243/2 97/248/2
f  139/243/2 137/231/2 97/248/2
f  182/249/2 139/243/2 87/2/2
f  139/243/2 182/249/2 179/176/2
f  91/240/1 110/129/1 104/250/1
f  86/244/2 150/251/2 182/245/2
f  104/250/1 110/129/1 146/3/1
f  153/132/2 150/251/2 151/2/2
f  152/252/6 157/129/6 151/3/6
f  152/252/6 146/2/6 160/253/6
f  130/254/1 146/2/1 110/132/1
f  147/255/1 146/2/1 130/254/1
f  150/251/2 161/256/2 182/245/2
f  154/257/6 153/136/6 151/2/6
f  154/257/6 151/2/6 155/258/6
f  155/258/6 151/2/6 156/259/6
f  156/259/6 151/2/6 157/141/6
f  152/252/6 158/260/6 157/129/6
f  152/252/6 159/261/6 158/260/6
f  152/252/6 160/253/6 159/261/6
f  150/251/2 153/132/2 161/256/2
f  147/255/1 131/262/1 146/2/1
f  132/263/1 146/2/1 131/262/1
f  162/264/6 160/253/6 146/2/6
f  132/263/1 149/136/1 146/2/1
f  162/264/6 146/2/6 149/132/6
f  182/245/2 180/176/2 179/177/2

# Mesh 'meshes[4]' with 62 faces
g meshes[4]
f  187/3/2 188/265/2 189/266/2
f  187/3/2 189/266/2 190/4/2
f  190/4/2 189/266/2 191/267/2
f  190/4/2 191/267/2 192/268/2
f  190/4/2 192/268/2 193/269/2
f  190/4/2 193/269/2 194/270/2
f  187/4/14 195/3/14 188/271/14
f  187/272/6 190/273/6 195/274/6
f  196/2/2 197/275/2 198/276/2
f  199/1/2 194/270/2 200/277/2
f  199/1/2 200/277/2 201/278/2
f  196/2/2 199/1/2 197/275/2
f  199/1/2 202/279/2 197/275/2
f  199/1/2 201/278/2 202/279/2
f  196/280/14 198/281/14 203/276/14
f  196/3/5 204/282/5 199/4/5
f  190/4/2 194/270/2 199/1/2
f  190/1/3 199/4/3 205/2/3
f  195/3/14 206/265/14 188/271/14
f  195/283/1 207/275/1 206/284/1
f  195/283/1 205/1/1 207/275/1
f  205/1/1 208/285/1 207/275/1
f  205/1/1 209/286/1 208/285/1
f  196/280/14 203/276/14 204/287/14
f  204/274/1 203/288/1 210/266/1
f  211/4/1 210/266/1 212/289/1
f  204/274/1 210/266/1 211/4/1
f  211/4/1 212/289/1 213/290/1
f  211/4/1 213/290/1 214/291/1
f  190/273/6 205/4/6 195/274/6
f  205/1/1 215/292/1 209/286/1
f  205/1/1 216/293/1 215/292/1
f  205/1/1 217/294/1 216/293/1
f  199/4/5 204/282/5 211/273/5
f  199/4/3 211/3/3 205/2/3
f  211/4/1 218/295/1 217/294/1
f  211/4/1 214/291/1 218/295/1
f  205/1/1 211/4/1 217/294/1
f  189/296/5 188/3/5 207/297/5
f  219/298/5 191/299/5 189/296/5
f  219/298/5 192/300/5 191/299/5
f  193/301/15 192/302/15 209/303/15
f  193/301/15 209/303/15 194/304/15
f  194/304/15 215/305/15 200/306/15
f  201/307/15 200/306/15 216/308/15
f  198/272/6 197/297/6 203/274/6
f  213/309/6 197/297/6 202/310/6
f  201/307/15 217/311/15 202/312/15
f  206/282/5 207/297/5 188/3/5
f  219/298/5 189/296/5 207/297/5
f  219/298/5 208/313/5 192/300/5
f  208/313/5 209/314/5 192/300/5
f  194/304/15 209/303/15 215/305/15
f  215/305/15 216/308/15 200/306/15
f  219/298/5 207/297/5 208/313/5
f  197/297/6 210/296/6 203/274/6
f  197/297/6 212/315/6 210/296/6
f  213/309/6 212/315/6 197/297/6
f  214/316/6 213/309/6 202/310/6
f  214/316/6 202/310/6 218/317/6
f  201/307/15 216/308/15 217/311/15
f  217/311/15 218/318/15 202/312/15

# Mesh 'meshes[5]' with 70 faces
g meshes[5]
f  220/4/4 221/319/4 222/320/4
f  220/4/4 222/320/4 223/1/4
f  220/4/4 224/3/4 221/319/4
f  221/276/1 225/321/1 222/322/1
f  220/323/6 226/324/6 224/3/6
f  221/276/1 227/325/1 225/321/1
f  222/320/4 228/326/4 223/1/4
f  220/3/2 223/2/2 229/1/2
f  222/322/1 225/321/1 228/265/1
f  223/1/4 228/326/4 230/2/4
f  228/327/6 225/328/6 231/329/6
f  220/3/2 229/1/2 226/4/2
f  227/319/4 232/330/4 233/331/4
f  227/319/4 233/331/4 234/332/4
f  226/1/3 229/4/3 235/2/3
f  227/319/4 234/332/4 225/326/4
f  225/326/4 234/332/4 236/333/4
f  225/328/6 236/334/6 237/335/6
f  223/3/5 238/324/5 229/4/5
f  221/336/5 239/337/5 227/338/5
f  221/319/4 224/3/4 240/265/4
f  221/336/5 240/323/5 239/337/5
f  224/2/1 239/339/1 240/276/1
f  224/2/1 241/340/1 239/339/1
f  227/338/5 239/337/5 241/341/5
f  224/2/1 242/325/1 241/340/1
f  228/326/4 243/276/4 230/2/4
f  228/327/6 244/342/6 243/3/6
f  228/327/6 231/329/6 244/342/6
f  223/3/5 230/323/5 238/324/5
f  243/265/1 244/343/1 230/3/1
f  244/343/1 245/344/1 230/3/1
f  244/342/6 231/329/6 245/345/6
f  230/3/1 245/344/1 246/346/1
f  230/3/1 246/346/1 247/321/1
f  227/338/5 241/341/5 232/347/5
f  226/324/6 235/4/6 224/3/6
f  224/2/1 235/1/1 242/325/1
f  235/1/1 248/348/1 242/325/1
f  235/1/1 249/349/1 248/348/1
f  235/1/1 250/350/1 249/349/1
f  235/1/1 251/351/1 250/350/1
f  225/328/6 237/335/6 231/329/6
f  229/4/3 238/3/3 235/2/3
f  230/3/1 247/321/1 238/4/1
f  235/1/1 252/352/1 251/351/1
f  235/1/1 238/4/1 252/352/1
f  238/4/1 247/321/1 253/353/1
f  238/4/1 253/353/1 252/352/1
f  254/354/16 233/355/16 232/356/16
f  254/354/16 234/357/16 233/355/16
f  254/354/16 255/358/16 234/357/16
f  255/358/16 236/359/16 234/357/16
f  237/335/6 246/360/6 231/329/6
f  231/329/6 246/360/6 245/345/6
f  254/361/5 232/347/5 242/362/5
f  232/347/5 241/341/5 242/362/5
f  254/361/5 242/362/5 248/363/5
f  254/361/5 248/363/5 249/364/5
f  254/361/5 249/364/5 250/365/5
f  254/366/17 250/367/17 251/368/17
f  256/369/6 237/335/6 236/334/6
f  255/370/6 256/369/6 236/334/6
f  254/366/17 251/368/17 255/371/17
f  237/335/6 247/372/6 246/360/6
f  256/369/6 247/372/6 237/335/6
f  255/371/17 251/368/17 252/373/17
f  255/370/6 253/374/6 256/369/6
f  255/371/17 252/373/17 253/375/17
f  256/369/6 253/374/6 247/372/6

